<mxfile host="app.diagrams.net" modified="2023-10-06T07:49:38.043Z" agent="Mozilla/5.0 (Windows NT 10.0; Win64; x64) AppleWebKit/537.36 (KHTML, like Gecko) Chrome/117.0.0.0 Safari/537.36" version="21.8.2" etag="Mfx6Yq5OLu1N4U7BCzws" type="github">
  <diagram name="Page-1" id="kgObe714VofC0hytf2PA">
    <mxGraphModel>
      <root>
        <mxCell id="0" />
        <mxCell id="1" parent="0" />
      </root>
    </mxGraphModel>
  </diagram>
</mxfile>
